<svg width="68" height="69" viewBox="0 0 68 69" fill="none" xmlns="http://www.w3.org/2000/svg">
<path d="M35.2979 66L8.9149 66C5.64819 66 3 63.6495 3 60.75C3 57.8505 5.64819 55.5 8.9149 55.5L59.0851 55.5C62.3518 55.5 65 53.1495 65 50.25C65 47.3505 62.3518 45 59.0851 45L8.9149 45C5.64819 45 3 42.6495 3.00001 39.75C3.00001 36.8505 5.64819 34.5 8.9149 34.5L59.0851 34.5C62.3518 34.5 65 32.1495 65 29.25C65 26.3505 62.3518 24 59.0851 24L8.9149 24C5.64819 24 3.00001 21.6495 3.00001 18.75C3.00001 15.8505 5.64819 13.5 8.9149 13.5L59.0851 13.5C62.3518 13.5 65 11.1495 65 8.25C65 5.35051 62.3518 3 59.0851 3L35.2979 3" stroke="#FF4D4D" stroke-width="6"/>
</svg>
